<svg xmlns="http://www.w3.org/2000/svg" xmlns:xlink="http://www.w3.org/1999/xlink" width="500" zoomAndPan="magnify" viewBox="0 0 375 374.999991" height="500" preserveAspectRatio="xMidYMid meet" version="1.0"><defs><clipPath id="202b4577c7"><path d="M 103.269531 51.351562 L 272.019531 51.351562 L 272.019531 292.101562 L 103.269531 292.101562 Z M 103.269531 51.351562 " clip-rule="nonzero"/></clipPath></defs><g clip-path="url(#202b4577c7)"><path fill="#ffffff" d="M 187.644531 51.355469 C 141.054688 51.355469 103.269531 89.089844 103.269531 135.617188 C 103.269531 198.8125 187.644531 292.101562 187.644531 292.101562 C 187.644531 292.101562 272.019531 198.8125 272.019531 135.617188 C 272.019531 89.089844 234.230469 51.355469 187.644531 51.355469 Z M 187.644531 165.707031 C 171.007812 165.707031 157.507812 152.226562 157.507812 135.617188 C 157.507812 119.003906 171.007812 105.523438 187.644531 105.523438 C 204.277344 105.523438 217.777344 119.003906 217.777344 135.617188 C 217.777344 152.226562 204.277344 165.707031 187.644531 165.707031 Z M 187.644531 165.707031 " fill-opacity="1" fill-rule="nonzero"/></g></svg>