<?xml version="1.0" encoding="UTF-8"?>
<svg id="Calque_1" data-name="Calque 1" xmlns="http://www.w3.org/2000/svg" viewBox="0 0 566.57 428.85">
  <defs>
    <style>
      .cls-1 {
        fill: #fff;
      }

      .cls-2 {
        fill: #1c4e9d;
      }

      .cls-3, .cls-4 {
        fill: #54afe3;
      }

      .cls-4, .cls-5 {
        stroke: #54afe3;
      }

      .cls-4, .cls-5, .cls-6 {
        stroke-width: 8px;
      }

      .cls-4, .cls-5, .cls-6, .cls-7 {
        stroke-miterlimit: 10;
      }

      .cls-5, .cls-6, .cls-7 {
        fill: none;
      }

      .cls-6, .cls-7 {
        stroke: #1c4e9d;
      }

      .cls-7 {
        stroke-width: 9px;
      }
    </style>
  </defs>
  <g>
    <path class="cls-1" d="M31.48,350.68c-1.93-1-3.9-1.82-5.9-2.47-2-.65-3.88-.98-5.63-.98-2.16,0-3.87,.41-5.11,1.24s-1.86,2.06-1.86,3.71c0,1.13,.47,2.14,1.42,3.03,.94,.89,2.16,1.68,3.66,2.38,1.5,.7,3.05,1.32,4.66,1.89,1.47,.52,2.93,1.14,4.38,1.86,1.45,.72,2.75,1.61,3.9,2.67,1.15,1.06,2.07,2.39,2.76,3.97s1.04,3.53,1.04,5.83c0,2.43-.67,4.69-2,6.77-1.34,2.08-3.29,3.76-5.87,5.04-2.58,1.28-5.75,1.92-9.53,1.92-1.93,0-3.9-.18-5.9-.55-2-.37-3.97-.93-5.9-1.69-1.93-.76-3.8-1.72-5.59-2.9l4.42-7.35c1.2,.82,2.5,1.55,3.9,2.18,1.4,.63,2.82,1.12,4.25,1.46,1.43,.35,2.74,.52,3.94,.52s2.4-.16,3.62-.49c1.22-.33,2.23-.88,3.04-1.66,.8-.78,1.21-1.87,1.21-3.25,0-.95-.33-1.82-1-2.6-.67-.78-1.57-1.5-2.69-2.15-1.13-.65-2.36-1.21-3.69-1.69-1.57-.56-3.18-1.21-4.83-1.95-1.66-.74-3.21-1.64-4.66-2.7-1.45-1.06-2.62-2.39-3.52-3.97-.9-1.58-1.35-3.53-1.35-5.83,0-2.78,.66-5.18,1.97-7.22,1.31-2.04,3.16-3.66,5.56-4.85,2.39-1.19,5.15-1.86,8.29-1.99,4.1,0,7.42,.46,9.98,1.37,2.55,.91,4.84,2,6.87,3.25l-3.8,7.22Z"/>
    <path class="cls-1" d="M60,339.09c3.18,0,6.01,.38,8.49,1.14,2.49,.76,4.57,1.84,6.25,3.25,1.68,1.41,2.96,3.1,3.83,5.08,.87,1.97,1.31,4.2,1.31,6.67,0,1.95-.31,3.91-.93,5.86-.62,1.95-1.63,3.73-3.04,5.34-1.4,1.61-3.26,2.9-5.56,3.87-2.3,.98-5.16,1.46-8.56,1.46h-7.18v15.23h-10.01v-47.9h15.4Zm1.73,23.56c1.52,0,2.78-.24,3.8-.72,1.01-.48,1.81-1.08,2.38-1.82,.58-.74,.99-1.51,1.24-2.31,.25-.8,.38-1.55,.38-2.25,0-.52-.08-1.18-.24-1.98-.16-.8-.5-1.62-1-2.44-.51-.82-1.28-1.52-2.31-2.08-1.04-.56-2.43-.85-4.18-.85h-7.18v14.45h7.11Zm9.39,5.86l12.57,18.48h-11.67l-12.84-18.22,11.94-.26Z"/>
    <path class="cls-1" d="M129.8,339.09c3.18,0,6.01,.38,8.49,1.14,2.49,.76,4.57,1.84,6.25,3.25,1.68,1.41,2.96,3.1,3.83,5.08,.87,1.97,1.31,4.2,1.31,6.67,0,1.95-.31,3.91-.93,5.86-.62,1.95-1.63,3.73-3.04,5.34-1.4,1.61-3.26,2.9-5.56,3.87-2.3,.98-5.16,1.46-8.56,1.46h-7.18v15.23h-10.01v-47.9h15.4Zm1.73,23.56c1.52,0,2.78-.24,3.8-.72,1.01-.48,1.81-1.08,2.38-1.82,.58-.74,.99-1.51,1.24-2.31,.25-.8,.38-1.55,.38-2.25,0-.52-.08-1.18-.24-1.98-.16-.8-.5-1.62-1-2.44-.51-.82-1.28-1.52-2.31-2.08-1.04-.56-2.43-.85-4.18-.85h-7.18v14.45h7.11Zm9.39,5.86l12.57,18.48h-11.67l-12.84-18.22,11.94-.26Z"/>
    <path class="cls-1" d="M161.77,339.09h34.66v9.11h-24.65v10.22h21.82v9.11h-21.82v10.35h25.62v9.11h-35.63v-47.9Z"/>
    <path class="cls-1" d="M253.25,388.95l-38.53-32.8,2.97,1.56,.21,29.29h-10.15v-49.79h.41l37.7,32.67-2.21-.91-.21-29.87h10.08v49.85h-.28Z"/>
    <path class="cls-1" d="M263.54,363.11c0-3.3,.67-6.42,2-9.37,1.33-2.95,3.19-5.56,5.56-7.84,2.37-2.28,5.12-4.07,8.25-5.37,3.13-1.3,6.49-1.95,10.08-1.95s6.88,.65,10.01,1.95c3.13,1.3,5.9,3.09,8.32,5.37,2.42,2.28,4.3,4.89,5.66,7.84,1.36,2.95,2.04,6.08,2.04,9.37s-.68,6.55-2.04,9.5c-1.36,2.95-3.25,5.54-5.66,7.78-2.42,2.24-5.19,3.98-8.32,5.24-3.13,1.26-6.47,1.89-10.01,1.89s-6.95-.63-10.08-1.89c-3.13-1.26-5.88-3-8.25-5.24-2.37-2.23-4.22-4.83-5.56-7.78-1.34-2.95-2-6.12-2-9.5Zm10.36,0c0,2.13,.4,4.11,1.21,5.96,.8,1.84,1.93,3.47,3.38,4.88,1.45,1.41,3.13,2.51,5.04,3.29,1.91,.78,3.99,1.17,6.25,1.17s4.18-.39,6.04-1.17,3.49-1.88,4.87-3.29c1.38-1.41,2.46-3.04,3.25-4.88,.78-1.84,1.17-3.83,1.17-5.96s-.4-4.19-1.21-6.05c-.81-1.87-1.91-3.5-3.31-4.91-1.4-1.41-3.05-2.5-4.94-3.29-1.89-.78-3.94-1.17-6.15-1.17s-4.26,.39-6.15,1.17c-1.89,.78-3.54,1.88-4.97,3.29-1.43,1.41-2.53,3.05-3.31,4.91-.78,1.87-1.17,3.88-1.17,6.05Z"/>
    <path class="cls-1" d="M329.68,339.09l14.84,34.5-5.8-1.11,13.46-33.39h11.88l-23.2,50.12-23.2-50.12h12.01Z"/>
    <path class="cls-1" d="M410.67,339.09c4.19,0,7.73,.66,10.63,1.98,2.9,1.32,5.11,3.19,6.63,5.6,1.52,2.41,2.28,5.26,2.28,8.56,0,1.95-.31,3.92-.93,5.89-.62,1.97-1.61,3.76-2.97,5.37-1.36,1.61-3.18,2.9-5.45,3.87-2.28,.98-5.08,1.46-8.39,1.46h-7.18v15.17h-10.01v-47.9h15.4Zm1.73,23.56c1.52,0,2.78-.25,3.8-.75,1.01-.5,1.81-1.13,2.38-1.89,.58-.76,.99-1.55,1.24-2.38,.25-.82,.38-1.54,.38-2.15,0-.48-.08-1.12-.24-1.92-.16-.8-.5-1.62-1-2.44-.51-.82-1.28-1.52-2.31-2.08-1.04-.56-2.43-.85-4.18-.85h-7.18v14.45h7.11Z"/>
    <path class="cls-1" d="M439.18,339.09h10.01v38.79h23.89v9.11h-33.9v-47.9Z"/>
    <path class="cls-1" d="M492.41,369.29c0,1.52,.48,2.97,1.45,4.36,.97,1.39,2.24,2.52,3.83,3.38,1.59,.87,3.33,1.3,5.21,1.3,2.07,0,3.91-.43,5.52-1.3,1.61-.87,2.89-2,3.83-3.38,.94-1.39,1.42-2.84,1.42-4.36v-30.2h9.87v30.39c0,3.51-.92,6.63-2.76,9.34-1.84,2.71-4.33,4.84-7.46,6.38-3.13,1.54-6.61,2.31-10.43,2.31s-7.21-.77-10.32-2.31c-3.11-1.54-5.58-3.67-7.42-6.38-1.84-2.71-2.76-5.83-2.76-9.34v-30.39h10.01v30.2Z"/>
    <path class="cls-1" d="M562.77,350.68c-1.93-1-3.9-1.82-5.9-2.47-2-.65-3.88-.98-5.63-.98-2.16,0-3.87,.41-5.11,1.24s-1.86,2.06-1.86,3.71c0,1.13,.47,2.14,1.42,3.03,.94,.89,2.16,1.68,3.66,2.38,1.5,.7,3.05,1.32,4.66,1.89,1.47,.52,2.93,1.14,4.38,1.86,1.45,.72,2.75,1.61,3.9,2.67,1.15,1.06,2.07,2.39,2.76,3.97s1.04,3.53,1.04,5.83c0,2.43-.67,4.69-2,6.77s-3.29,3.76-5.87,5.04c-2.58,1.28-5.75,1.92-9.53,1.92-1.93,0-3.9-.18-5.9-.55s-3.97-.93-5.9-1.69c-1.93-.76-3.8-1.72-5.59-2.9l4.42-7.35c1.2,.82,2.5,1.55,3.9,2.18,1.4,.63,2.82,1.12,4.25,1.46,1.43,.35,2.74,.52,3.94,.52s2.4-.16,3.62-.49c1.22-.33,2.23-.88,3.04-1.66,.8-.78,1.21-1.87,1.21-3.25,0-.95-.33-1.82-1-2.6-.67-.78-1.57-1.5-2.69-2.15-1.13-.65-2.36-1.21-3.69-1.69-1.57-.56-3.18-1.21-4.83-1.95-1.66-.74-3.21-1.64-4.66-2.7-1.45-1.06-2.62-2.39-3.52-3.97s-1.35-3.53-1.35-5.83c0-2.78,.66-5.18,1.97-7.22,1.31-2.04,3.16-3.66,5.56-4.85s5.16-1.86,8.29-1.99c4.1,0,7.42,.46,9.98,1.37s4.84,2,6.87,3.25l-3.8,7.22Z"/>
  </g>
  <g>
    <path class="cls-1" d="M72.2,428.71v-16.57h6.58c1.49,0,2.77,.22,3.84,.67,1.07,.45,1.9,1.1,2.47,1.94,.58,.84,.87,1.87,.87,3.07s-.29,2.17-.87,3.02c-.58,.84-1.4,1.49-2.47,1.94-1.07,.45-2.35,.67-3.84,.67h-5.55l.83-.8v6.06h-1.86Zm1.86-5.92l-.83-.83h5.5c1.76,0,3.09-.36,4-1.09,.91-.73,1.37-1.74,1.37-3.05s-.46-2.35-1.37-3.08c-.91-.73-2.25-1.09-4-1.09h-5.5l.83-.83v9.96Zm10.14,5.92l-4.52-6.01h2.01l4.54,6.01h-2.03Z"/>
    <path class="cls-1" d="M96.43,427.19h10.57v1.51h-12.43v-16.57h12.05v1.51h-10.19v13.54Zm-.2-7.64h9.29v1.49h-9.29v-1.49Zm2.76-8.76l3.44-2.93h2.39l-4.07,2.93h-1.76Z"/>
    <path class="cls-1" d="M115.59,428.71v-16.57h1.53l12.13,14.39h-.8v-14.39h1.83v16.57h-1.53l-12.1-14.39h.8v14.39h-1.86Z"/>
    <path class="cls-1" d="M147.9,428.85c-1.32,0-2.55-.21-3.68-.63s-2.11-1.01-2.94-1.77c-.83-.77-1.47-1.66-1.93-2.67-.46-1.02-.69-2.13-.69-3.35s.23-2.33,.69-3.35c.46-1.02,1.1-1.91,1.93-2.67s1.8-1.36,2.92-1.78c1.12-.42,2.35-.63,3.69-.63s2.54,.21,3.67,.63c1.12,.42,2.1,1.01,2.92,1.76,.83,.76,1.47,1.65,1.93,2.67,.46,1.03,.69,2.15,.69,3.36s-.23,2.33-.69,3.36-1.1,1.92-1.93,2.67c-.83,.76-1.8,1.34-2.92,1.76-1.12,.42-2.34,.63-3.67,.63Zm0-1.56c1.05,0,2.03-.17,2.92-.51s1.67-.82,2.33-1.44c.66-.62,1.18-1.35,1.54-2.18s.55-1.74,.55-2.73-.18-1.91-.55-2.73c-.37-.83-.88-1.55-1.54-2.18-.66-.62-1.44-1.1-2.33-1.44-.9-.34-1.87-.51-2.92-.51s-2.03,.17-2.94,.51c-.9,.34-1.69,.82-2.35,1.44s-1.18,1.35-1.56,2.18c-.38,.83-.56,1.74-.56,2.73s.19,1.89,.56,2.72c.38,.84,.9,1.57,1.56,2.19,.66,.62,1.44,1.11,2.35,1.44s1.88,.51,2.94,.51Z"/>
    <path class="cls-1" d="M169.97,428.71l-7.78-16.57h2.01l7.28,15.6h-1.1l7.33-15.6h1.88l-7.78,16.57h-1.83Z"/>
    <path class="cls-1" d="M183,428.71l8.03-16.57h1.83l8.03,16.57h-1.96l-7.38-15.55h.75l-7.38,15.55h-1.93Zm3.16-4.43l.55-1.42h10.22l.55,1.42h-11.32Z"/>
    <path class="cls-1" d="M210.57,428.71v-15.05h-6.18v-1.51h14.21v1.51h-6.18v15.05h-1.86Z"/>
    <path class="cls-1" d="M225.78,428.71v-16.57h1.86v16.57h-1.86Z"/>
    <path class="cls-1" d="M245.26,428.85c-1.32,0-2.55-.21-3.68-.63s-2.11-1.01-2.94-1.77c-.83-.77-1.47-1.66-1.93-2.67-.46-1.02-.69-2.13-.69-3.35s.23-2.33,.69-3.35c.46-1.02,1.1-1.91,1.93-2.67s1.8-1.36,2.92-1.78c1.12-.42,2.35-.63,3.69-.63s2.54,.21,3.67,.63c1.12,.42,2.1,1.01,2.92,1.76,.83,.76,1.47,1.65,1.93,2.67,.46,1.03,.69,2.15,.69,3.36s-.23,2.33-.69,3.36-1.1,1.92-1.93,2.67c-.83,.76-1.8,1.34-2.92,1.76-1.12,.42-2.34,.63-3.67,.63Zm0-1.56c1.05,0,2.03-.17,2.92-.51s1.67-.82,2.33-1.44c.66-.62,1.18-1.35,1.54-2.18s.55-1.74,.55-2.73-.18-1.91-.55-2.73c-.37-.83-.88-1.55-1.54-2.18-.66-.62-1.44-1.1-2.33-1.44-.9-.34-1.87-.51-2.92-.51s-2.03,.17-2.94,.51c-.9,.34-1.69,.82-2.35,1.44s-1.18,1.35-1.56,2.18c-.38,.83-.56,1.74-.56,2.73s.19,1.89,.56,2.72c.38,.84,.9,1.57,1.56,2.19,.66,.62,1.44,1.11,2.35,1.44s1.88,.51,2.94,.51Z"/>
    <path class="cls-1" d="M262.86,428.71v-16.57h1.53l12.13,14.39h-.8v-14.39h1.83v16.57h-1.53l-12.1-14.39h.8v14.39h-1.86Z"/>
    <path class="cls-1" d="M298.29,428.71v-16.57h7.15c1.88,0,3.52,.35,4.93,1.05s2.51,1.68,3.3,2.92c.79,1.25,1.18,2.68,1.18,4.31s-.39,3.06-1.18,4.31c-.79,1.25-1.89,2.22-3.3,2.92s-3.06,1.05-4.93,1.05h-7.15Zm1.86-1.51h5.2c1.56,0,2.91-.29,4.05-.86,1.15-.58,2.04-1.37,2.67-2.39,.64-1.02,.95-2.19,.95-3.51s-.32-2.52-.95-3.53c-.64-1.01-1.53-1.8-2.67-2.38s-2.5-.86-4.05-.86h-5.2v13.54Z"/>
    <path class="cls-1" d="M321.41,416.92l1.11-4.36,.2,.99c-.38,0-.71-.11-.97-.34-.26-.23-.39-.53-.39-.91s.13-.69,.39-.92c.26-.24,.57-.36,.94-.36s.7,.12,.94,.37c.24,.25,.36,.55,.36,.91,0,.13,0,.25-.03,.38s-.05,.26-.09,.41c-.04,.15-.1,.33-.19,.56l-1.08,3.27h-1.21Z"/>
    <path class="cls-1" d="M332.41,428.71v-16.57h1.86v16.57h-1.86Z"/>
    <path class="cls-1" d="M344.21,428.71v-16.57h1.53l12.13,14.39h-.8v-14.39h1.83v16.57h-1.53l-12.1-14.39h.8v14.39h-1.86Z"/>
    <path class="cls-1" d="M372.25,428.71v-15.05h-6.18v-1.51h14.21v1.51h-6.18v15.05h-1.86Z"/>
    <path class="cls-1" d="M389.32,427.19h10.57v1.51h-12.43v-16.57h12.05v1.51h-10.19v13.54Zm-.2-7.64h9.29v1.49h-9.29v-1.49Zm2.76-8.76l3.44-2.93h2.39l-4.07,2.93h-1.76Z"/>
    <path class="cls-1" d="M408.48,428.71v-16.57h6.58c1.49,0,2.77,.22,3.84,.67,1.07,.45,1.9,1.1,2.47,1.94,.58,.84,.87,1.87,.87,3.07s-.29,2.17-.87,3.02c-.58,.84-1.4,1.49-2.47,1.94-1.07,.45-2.35,.67-3.84,.67h-5.55l.83-.8v6.06h-1.86Zm1.86-5.92l-.83-.83h5.5c1.76,0,3.09-.36,4-1.09,.91-.73,1.37-1.74,1.37-3.05s-.46-2.35-1.37-3.08c-.91-.73-2.25-1.09-4-1.09h-5.5l.83-.83v9.96Zm10.14,5.92l-4.52-6.01h2.01l4.54,6.01h-2.03Z"/>
    <path class="cls-1" d="M430.85,428.71v-16.57h1.86v16.57h-1.86Z"/>
    <path class="cls-1" d="M444.51,427.19h10.57v1.51h-12.43v-16.57h12.05v1.51h-10.19v13.54Zm-.2-7.64h9.29v1.49h-9.29v-1.49Z"/>
    <path class="cls-1" d="M470.74,428.85c-2.24,0-4.01-.61-5.3-1.82-1.29-1.21-1.93-3.01-1.93-5.4v-9.49h1.86v9.42c0,1.96,.47,3.4,1.41,4.33,.94,.93,2.26,1.4,3.97,1.4s3.05-.46,3.99-1.4c.94-.93,1.41-2.37,1.41-4.33v-9.42h1.81v9.49c0,2.38-.64,4.18-1.92,5.4-1.28,1.22-3.04,1.82-5.29,1.82Z"/>
    <path class="cls-1" d="M487.77,428.71v-16.57h6.58c1.49,0,2.77,.22,3.84,.67,1.07,.45,1.9,1.1,2.47,1.94,.58,.84,.87,1.87,.87,3.07s-.29,2.17-.87,3.02c-.58,.84-1.4,1.49-2.47,1.94-1.07,.45-2.35,.67-3.84,.67h-5.55l.83-.8v6.06h-1.86Zm1.86-5.92l-.83-.83h5.5c1.76,0,3.09-.36,4-1.09s1.37-1.74,1.37-3.05-.46-2.35-1.37-3.08-2.25-1.09-4-1.09h-5.5l.83-.83v9.96Zm10.14,5.92l-4.52-6.01h2.01l4.54,6.01h-2.03Z"/>
  </g>
  <line class="cls-4" x1="101.79" y1="295.34" x2="101.79" y2="134.35"/>
  <line class="cls-5" x1="101.79" y1="130.48" x2="407.41" y2="235.66"/>
  <line class="cls-4" x1="464.4" y1="295.29" x2="97.77" y2="294.64"/>
  <line class="cls-5" x1="167.77" y1="152.94" x2="462.97" y2="75.59"/>
  <line class="cls-4" x1="404.62" y1="232.04" x2="404.62" y2="294.02"/>
  <line class="cls-4" x1="460.46" y1="298.83" x2="460.41" y2="73.47"/>
  <line class="cls-6" x1="210.22" y1="7.18" x2="361.57" y2="105.11"/>
  <line class="cls-6" x1="208.82" y1="167.13" x2="359.72" y2="219.65"/>
  <line class="cls-6" x1="214.42" y1="140.72" x2="360.02" y2="102.63"/>
  <line class="cls-7" x1="211.37" y1="298.78" x2="211.37" y2="12.77"/>
  <line class="cls-6" x1="359.72" y1="106.03" x2="359.72" y2="298.78"/>
  <line class="cls-6" x1="214.67" y1="294.84" x2="359.72" y2="294.84"/>
  <polygon class="cls-2" points="363.9 106.22 363.93 101.89 360.57 106.16 363.9 106.22"/>
  <polygon class="cls-3" points="104.19 127.11 97.6 124.79 97.6 135.32 103.23 134.95 104.19 127.11"/>
  <polygon class="cls-2" points="213.3 4.47 206.87 0 206.87 13.35 213.09 13.35 213.3 4.47"/>
  <polygon class="cls-3" points="464.4 73.5 464.4 71.06 461.64 71.8 462.25 73.7 464.4 73.5"/>
</svg>