<svg xmlns="http://www.w3.org/2000/svg" xmlns:xlink="http://www.w3.org/1999/xlink" width="500" zoomAndPan="magnify" viewBox="0 0 375 374.999991" height="500" preserveAspectRatio="xMidYMid meet" version="1.0"><defs><clipPath id="8af3120c27"><path d="M 104.363281 51.351562 L 270.863281 51.351562 L 270.863281 292 L 104.363281 292 Z M 104.363281 51.351562 " clip-rule="nonzero"/></clipPath></defs><path fill="#ffffff" d="M 191.195312 185.039062 C 191.195312 185.515625 191.101562 185.96875 190.921875 186.410156 C 190.738281 186.847656 190.480469 187.234375 190.144531 187.570312 C 189.808594 187.90625 189.421875 188.164062 188.984375 188.34375 C 188.542969 188.527344 188.085938 188.617188 187.613281 188.617188 C 187.136719 188.617188 186.679688 188.527344 186.242188 188.34375 C 185.800781 188.164062 185.414062 187.90625 185.078125 187.570312 C 184.742188 187.234375 184.484375 186.847656 184.300781 186.410156 C 184.121094 185.96875 184.03125 185.515625 184.03125 185.039062 C 184.03125 184.566406 184.121094 184.109375 184.300781 183.671875 C 184.484375 183.230469 184.742188 182.84375 185.078125 182.507812 C 185.414062 182.171875 185.800781 181.914062 186.242188 181.734375 C 186.679688 181.550781 187.136719 181.460938 187.613281 181.460938 C 188.085938 181.460938 188.542969 181.550781 188.984375 181.734375 C 189.421875 181.914062 189.808594 182.171875 190.144531 182.507812 C 190.480469 182.84375 190.738281 183.230469 190.921875 183.667969 C 191.101562 184.109375 191.195312 184.566406 191.195312 185.039062 Z M 191.195312 185.039062 " fill-opacity="1" fill-rule="nonzero"/><path fill="#ffffff" d="M 191.195312 199.183594 C 191.195312 199.65625 191.101562 200.113281 190.921875 200.550781 C 190.738281 200.988281 190.480469 201.375 190.144531 201.710938 C 189.808594 202.046875 189.421875 202.304688 188.984375 202.488281 C 188.542969 202.667969 188.085938 202.761719 187.613281 202.761719 C 187.136719 202.761719 186.679688 202.667969 186.242188 202.488281 C 185.800781 202.304688 185.414062 202.046875 185.078125 201.710938 C 184.742188 201.375 184.484375 200.988281 184.300781 200.550781 C 184.121094 200.113281 184.03125 199.65625 184.03125 199.183594 C 184.03125 198.707031 184.121094 198.25 184.300781 197.8125 C 184.484375 197.375 184.742188 196.988281 185.078125 196.652344 C 185.414062 196.316406 185.800781 196.058594 186.242188 195.875 C 186.679688 195.695312 187.136719 195.601562 187.613281 195.601562 C 188.085938 195.601562 188.542969 195.695312 188.984375 195.875 C 189.421875 196.058594 189.808594 196.316406 190.144531 196.652344 C 190.480469 196.988281 190.738281 197.375 190.921875 197.8125 C 191.101562 198.25 191.195312 198.707031 191.195312 199.183594 Z M 191.195312 199.183594 " fill-opacity="1" fill-rule="nonzero"/><g clip-path="url(#8af3120c27)"><path fill="#ffffff" d="M 212.746094 163.308594 L 228.21875 149.195312 L 235.640625 142.46875 C 249.054688 130.386719 255.703125 114.011719 255.960938 92.339844 L 255.960938 74.132812 L 267.195312 74.132812 C 267.675781 74.144531 268.140625 74.0625 268.589844 73.886719 C 269.039062 73.710938 269.4375 73.453125 269.78125 73.117188 C 270.128906 72.777344 270.394531 72.390625 270.582031 71.945312 C 270.769531 71.5 270.863281 71.035156 270.863281 70.554688 L 270.863281 55.066406 C 270.863281 54.59375 270.769531 54.136719 270.589844 53.699219 C 270.40625 53.257812 270.148438 52.871094 269.8125 52.535156 C 269.476562 52.199219 269.089844 51.941406 268.652344 51.761719 C 268.210938 51.578125 267.753906 51.488281 267.28125 51.488281 L 108 51.488281 C 107.527344 51.488281 107.070312 51.578125 106.628906 51.761719 C 106.191406 51.941406 105.804688 52.199219 105.46875 52.535156 C 105.132812 52.871094 104.875 53.257812 104.691406 53.699219 C 104.511719 54.136719 104.417969 54.59375 104.417969 55.066406 L 104.417969 70.554688 C 104.417969 71.03125 104.511719 71.484375 104.691406 71.925781 C 104.875 72.363281 105.132812 72.75 105.46875 73.085938 C 105.804688 73.421875 106.191406 73.679688 106.628906 73.859375 C 107.070312 74.042969 107.527344 74.132812 108 74.132812 L 119.234375 74.132812 L 119.234375 92.285156 C 119.492188 113.898438 126.171875 130.273438 139.582031 142.324219 L 148.179688 150.171875 L 162.507812 163.226562 C 164.015625 164.355469 165.222656 165.75 166.125 167.402344 C 167.03125 169.054688 167.554688 170.820312 167.695312 172.699219 C 167.507812 174.636719 166.933594 176.453125 165.96875 178.144531 C 165.007812 179.835938 163.738281 181.257812 162.164062 182.40625 L 139.523438 203.074219 C 126.113281 215.128906 119.464844 231.503906 119.179688 253.175781 L 119.179688 268.976562 L 108 268.976562 C 107.519531 268.976562 107.054688 269.070312 106.609375 269.257812 C 106.164062 269.445312 105.773438 269.710938 105.4375 270.054688 C 105.101562 270.402344 104.84375 270.796875 104.667969 271.246094 C 104.492188 271.695312 104.40625 272.160156 104.417969 272.640625 L 104.417969 288.128906 C 104.417969 288.605469 104.511719 289.0625 104.691406 289.5 C 104.875 289.9375 105.132812 290.324219 105.46875 290.660156 C 105.804688 290.996094 106.191406 291.253906 106.628906 291.4375 C 107.070312 291.617188 107.527344 291.707031 108 291.707031 L 267.195312 291.707031 C 267.4375 291.714844 267.675781 291.695312 267.914062 291.652344 C 268.15625 291.609375 268.386719 291.542969 268.613281 291.453125 C 268.835938 291.363281 269.050781 291.25 269.253906 291.117188 C 269.457031 290.984375 269.640625 290.832031 269.8125 290.660156 C 269.984375 290.488281 270.136719 290.304688 270.269531 290.101562 C 270.40625 289.898438 270.515625 289.683594 270.605469 289.460938 C 270.695312 289.234375 270.761719 289.003906 270.804688 288.765625 C 270.847656 288.527344 270.867188 288.285156 270.863281 288.042969 L 270.863281 272.640625 C 270.863281 272.167969 270.769531 271.710938 270.589844 271.273438 C 270.40625 270.835938 270.148438 270.445312 269.8125 270.113281 C 269.476562 269.777344 269.089844 269.515625 268.652344 269.335938 C 268.210938 269.152344 267.753906 269.0625 267.28125 269.0625 L 255.960938 269.0625 L 255.960938 253.117188 C 255.703125 231.503906 249.054688 215.128906 235.640625 203.074219 L 212.972656 182.378906 C 211.414062 181.238281 210.160156 179.832031 209.203125 178.152344 C 208.25 176.476562 207.683594 174.679688 207.5 172.757812 C 207.660156 170.882812 208.195312 169.121094 209.109375 167.472656 C 210.023438 165.828125 211.234375 164.4375 212.746094 163.308594 Z M 200.335938 172.785156 C 200.414062 174.238281 200.644531 175.664062 201.03125 177.0625 C 201.417969 178.464844 201.945312 179.808594 202.621094 181.09375 C 203.296875 182.382812 204.101562 183.582031 205.035156 184.695312 C 205.96875 185.808594 207.011719 186.8125 208.160156 187.703125 L 230.742188 208.371094 C 242.777344 219.191406 248.480469 233.449219 248.710938 253.175781 L 248.710938 268.976562 L 126.398438 268.976562 L 126.398438 253.203125 C 126.65625 233.449219 132.359375 219.191406 144.398438 208.371094 L 167.035156 187.730469 C 168.195312 186.832031 169.242188 185.824219 170.183594 184.699219 C 171.125 183.578125 171.933594 182.367188 172.613281 181.074219 C 173.292969 179.777344 173.828125 178.421875 174.214844 177.011719 C 174.605469 175.597656 174.835938 174.164062 174.917969 172.699219 C 174.84375 171.285156 174.621094 169.890625 174.246094 168.523438 C 173.875 167.152344 173.359375 165.839844 172.699219 164.582031 C 172.042969 163.324219 171.257812 162.152344 170.347656 161.0625 C 169.433594 159.976562 168.417969 158.996094 167.292969 158.128906 L 152.964844 145.074219 L 144.367188 137.230469 C 132.359375 126.410156 126.65625 112.152344 126.398438 92.425781 L 126.398438 74.132812 L 248.796875 74.132812 L 248.796875 92.285156 C 248.566406 112.039062 242.863281 126.292969 230.828125 137.117188 C 228.335938 139.347656 225.871094 141.609375 223.375 143.902344 L 207.816406 158.128906 C 206.707031 159.015625 205.707031 160.011719 204.8125 161.109375 C 203.914062 162.210938 203.144531 163.390625 202.5 164.65625 C 201.855469 165.917969 201.351562 167.234375 200.984375 168.605469 C 200.621094 169.976562 200.40625 171.371094 200.335938 172.785156 Z M 200.335938 172.785156 " fill-opacity="1" fill-rule="nonzero"/></g><path fill="#ffffff" d="M 234.78125 120.910156 C 234.976562 120.578125 235.109375 120.222656 235.1875 119.847656 C 235.265625 119.46875 235.28125 119.089844 235.234375 118.707031 C 235.1875 118.324219 235.082031 117.960938 234.914062 117.613281 C 234.75 117.265625 234.535156 116.953125 234.265625 116.675781 C 234.003906 116.390625 233.703125 116.15625 233.363281 115.972656 C 233.023438 115.789062 232.664062 115.664062 232.28125 115.597656 C 231.902344 115.535156 231.519531 115.53125 231.136719 115.59375 C 230.757812 115.65625 230.394531 115.777344 230.054688 115.960938 C 215.925781 123.144531 210.625 125.835938 188.699219 118.820312 C 185.21875 117.6875 181.664062 116.898438 178.03125 116.445312 C 174.398438 115.992188 170.753906 115.890625 167.101562 116.132812 C 163.449219 116.378906 159.855469 116.96875 156.316406 117.902344 C 152.773438 118.835938 149.355469 120.097656 146.058594 121.683594 C 145.816406 121.800781 145.589844 121.941406 145.378906 122.105469 C 145.167969 122.273438 144.976562 122.460938 144.808594 122.667969 C 144.636719 122.875 144.492188 123.101562 144.375 123.34375 C 144.257812 123.582031 144.167969 123.832031 144.105469 124.09375 C 144.042969 124.355469 144.011719 124.621094 144.007812 124.890625 C 144.007812 125.15625 144.035156 125.421875 144.089844 125.683594 C 144.148438 125.949219 144.234375 126.199219 144.347656 126.441406 C 144.464844 126.6875 144.605469 126.914062 144.769531 127.125 C 146.144531 128.757812 177.324219 158.617188 177.609375 158.617188 C 178.765625 159.941406 179.6875 161.414062 180.371094 163.035156 C 181.058594 164.652344 181.476562 166.339844 181.621094 168.089844 C 181.667969 168.453125 181.75 168.804688 181.863281 169.152344 C 181.976562 169.496094 182.121094 169.828125 182.300781 170.148438 C 182.476562 170.464844 182.683594 170.765625 182.917969 171.042969 C 183.152344 171.324219 183.410156 171.578125 183.691406 171.808594 C 183.976562 172.035156 184.277344 172.238281 184.597656 172.410156 C 184.917969 172.582031 185.253906 172.722656 185.601562 172.832031 C 185.949219 172.9375 186.304688 173.011719 186.667969 173.054688 C 187.027344 173.09375 187.390625 173.101562 187.753906 173.074219 C 188.101562 173.105469 188.445312 173.105469 188.789062 173.070312 C 189.132812 173.035156 189.472656 172.96875 189.800781 172.867188 C 190.132812 172.765625 190.449219 172.632812 190.753906 172.46875 C 191.058594 172.304688 191.347656 172.109375 191.613281 171.890625 C 191.878906 171.667969 192.121094 171.425781 192.339844 171.15625 C 192.558594 170.886719 192.746094 170.597656 192.90625 170.292969 C 193.066406 169.984375 193.195312 169.667969 193.292969 169.335938 C 193.390625 169.003906 193.457031 168.664062 193.488281 168.320312 C 193.761719 166.035156 194.445312 163.875 195.53125 161.84375 C 196.621094 159.816406 198.039062 158.050781 199.792969 156.554688 C 200.277344 156.125 202.285156 154.207031 205.007812 151.601562 C 211.714844 145.1875 222.890625 134.425781 225.957031 131.734375 C 229.480469 128.601562 232.425781 124.996094 234.78125 120.910156 Z M 234.78125 120.910156 " fill-opacity="1" fill-rule="nonzero"/><path fill="#ffffff" d="M 138.265625 257.527344 C 138.257812 257.765625 138.277344 258.007812 138.320312 258.242188 C 138.363281 258.480469 138.425781 258.710938 138.515625 258.933594 C 138.605469 259.160156 138.714844 259.371094 138.847656 259.574219 C 138.980469 259.777344 139.132812 259.960938 139.300781 260.132812 C 139.472656 260.304688 139.65625 260.457031 139.859375 260.589844 C 140.058594 260.722656 140.269531 260.835938 140.496094 260.925781 C 140.71875 261.019531 140.949219 261.085938 141.1875 261.128906 C 141.421875 261.175781 141.660156 261.195312 141.902344 261.191406 L 233.347656 261.191406 C 233.824219 261.191406 234.28125 261.101562 234.71875 260.917969 C 235.160156 260.738281 235.546875 260.476562 235.882812 260.140625 C 236.21875 259.808594 236.476562 259.421875 236.660156 258.980469 C 236.839844 258.542969 236.929688 258.085938 236.929688 257.613281 C 236.894531 256.023438 236.777344 254.4375 236.585938 252.859375 C 236.394531 251.28125 236.128906 249.71875 235.785156 248.164062 C 235.441406 246.613281 235.023438 245.082031 234.53125 243.570312 C 234.039062 242.058594 233.476562 240.570312 232.839844 239.113281 C 232.207031 237.65625 231.5 236.234375 230.726562 234.84375 C 229.953125 233.453125 229.117188 232.105469 228.210938 230.796875 C 227.308594 229.488281 226.34375 228.226562 225.316406 227.011719 C 224.289062 225.796875 223.207031 224.632812 222.070312 223.523438 C 220.929688 222.414062 219.742188 221.359375 218.5 220.363281 C 217.257812 219.367188 215.972656 218.4375 214.640625 217.5625 C 213.3125 216.691406 211.941406 215.886719 210.53125 215.148438 C 209.121094 214.410156 207.679688 213.742188 206.207031 213.140625 C 204.734375 212.542969 203.234375 212.015625 201.710938 211.5625 C 200.183594 211.105469 198.640625 210.726562 197.078125 210.421875 C 195.515625 210.113281 193.945312 209.886719 192.359375 209.730469 C 190.777344 209.578125 189.1875 209.503906 187.597656 209.503906 C 186.007812 209.503906 184.417969 209.578125 182.835938 209.730469 C 181.25 209.886719 179.679688 210.113281 178.117188 210.421875 C 176.554688 210.726562 175.011719 211.105469 173.484375 211.5625 C 171.960938 212.015625 170.460938 212.542969 168.988281 213.140625 C 167.515625 213.742188 166.074219 214.410156 164.664062 215.148438 C 163.253906 215.886719 161.882812 216.691406 160.554688 217.5625 C 159.222656 218.4375 157.9375 219.367188 156.695312 220.363281 C 155.453125 221.359375 154.265625 222.414062 153.125 223.523438 C 151.988281 224.632812 150.90625 225.796875 149.878906 227.011719 C 148.851562 228.226562 147.886719 229.488281 146.984375 230.796875 C 146.078125 232.105469 145.242188 233.453125 144.46875 234.84375 C 143.695312 236.234375 142.988281 237.65625 142.355469 239.113281 C 141.71875 240.570312 141.15625 242.058594 140.664062 243.570312 C 140.171875 245.082031 139.753906 246.613281 139.410156 248.164062 C 139.066406 249.71875 138.800781 251.28125 138.609375 252.859375 C 138.417969 254.4375 138.300781 256.023438 138.265625 257.613281 Z M 138.265625 257.527344 " fill-opacity="1" fill-rule="nonzero"/></svg>