<svg xmlns="http://www.w3.org/2000/svg" xmlns:xlink="http://www.w3.org/1999/xlink" width="500" zoomAndPan="magnify" viewBox="0 0 375 374.999991" height="500" preserveAspectRatio="xMidYMid meet" version="1.0"><defs><clipPath id="2e98147187"><path d="M 181 205 L 265 205 L 265 292.101562 L 181 292.101562 Z M 181 205 " clip-rule="nonzero"/></clipPath></defs><g clip-path="url(#2e98147187)"><path fill="#ffffff" d="M 243.347656 281.65625 C 240.558594 281.621094 237.929688 280.492188 235.953125 278.464844 C 233.960938 276.433594 232.902344 273.769531 232.957031 270.980469 C 233.042969 265.300781 237.878906 260.535156 243.523438 260.589844 L 243.683594 260.589844 C 249.453125 260.75 254.074219 265.53125 253.988281 271.265625 C 253.898438 276.929688 249.046875 281.691406 243.347656 281.65625 Z M 257.78125 254.519531 C 251.921875 248.539062 211.800781 206.105469 211.289062 205.574219 L 181.046875 237.175781 C 191.753906 248.167969 219.933594 278.234375 227.097656 285.519531 C 231.402344 289.914062 236.238281 292.085938 241.882812 292.15625 L 241.917969 292.15625 C 243.453125 292.15625 245.058594 292.015625 246.683594 291.695312 C 255.257812 290.074219 260.886719 285.078125 263.445312 276.824219 C 266.019531 268.496094 264.117188 260.996094 257.78125 254.519531 " fill-opacity="1" fill-rule="nonzero"/></g><path fill="#ffffff" d="M 167.722656 160.707031 C 163.382812 156.3125 152.089844 143.699219 147.855469 139.394531 C 147.113281 138.652344 149.355469 130.675781 149.355469 130.675781 C 149.355469 130.554688 149.355469 130.445312 149.355469 130.324219 C 149.375 129.6875 149.410156 129.054688 149.425781 128.402344 C 149.585938 124.519531 149.742188 120.511719 149.039062 116.5625 C 147.21875 106.644531 142.667969 97.945312 135.859375 91.402344 C 129.0625 84.871094 120.152344 80.636719 110.113281 79.121094 C 108.207031 78.839844 106.269531 78.679688 104.378906 78.660156 C 98.363281 78.589844 94.058594 78.363281 88.09375 81.042969 L 85.023438 82.402344 L 87.054688 85.085938 C 87.617188 85.84375 88.289062 86.25 88.78125 86.566406 C 88.90625 86.636719 89.082031 86.742188 89.117188 86.761719 C 98.152344 95.882812 105.472656 103.328125 112.160156 110.191406 C 115.390625 113.492188 115.335938 117.566406 112.019531 120.847656 L 110.503906 122.347656 C 107.609375 125.207031 101.574219 131.152344 98.609375 133.976562 C 97.144531 135.371094 95.417969 136.09375 93.617188 136.074219 C 91.816406 136.058594 90.105469 135.316406 88.660156 133.921875 C 87.8125 133.113281 87 132.28125 86.152344 131.398438 C 85.765625 131.011719 85.394531 130.605469 85.023438 130.234375 L 61.554688 106.292969 L 59.898438 109.734375 C 56.933594 115.925781 57.375 125.011719 58.925781 132.863281 C 63.199219 154.671875 81.601562 170.058594 103.65625 170.289062 C 104.839844 170.289062 106.019531 170.269531 107.203125 170.179688 C 107.328125 170.179688 107.449219 170.179688 107.574219 170.179688 C 108.03125 170.179688 108.332031 170.234375 108.703125 170.5 C 108.703125 170.5 116.148438 169.230469 117.367188 170.480469 C 121.601562 174.785156 132.71875 187.242188 136.792969 191.40625 L 167.722656 160.707031 " fill-opacity="1" fill-rule="nonzero"/><path fill="#ffffff" d="M 129.0625 272.765625 C 149.9375 249.652344 193.90625 203.847656 214.851562 180.75 L 236.238281 157.144531 L 225.578125 146.554688 L 215.097656 135.777344 L 191.261719 156.878906 C 167.917969 177.558594 121.601562 220.980469 98.238281 241.585938 C 92.363281 246.773438 89.046875 253.761719 88.871094 261.226562 C 88.570312 273.789062 96.84375 282.0625 109.300781 281.921875 C 116.785156 281.832031 123.804688 278.585938 129.0625 272.765625 " fill-opacity="1" fill-rule="nonzero"/><path fill="#ffffff" d="M 334.429688 144.703125 C 331.816406 142.039062 329.171875 139.394531 326.523438 136.726562 C 323.578125 133.78125 320.632812 130.765625 317.703125 127.816406 C 316.695312 126.777344 315.691406 126.355469 314.261719 126.335938 C 313.519531 126.320312 306.78125 126.40625 304.910156 126.40625 L 304.328125 126.40625 C 297.605469 126.300781 294.429688 123.035156 294.394531 116.136719 L 294.339844 114.410156 C 294.304688 112.875 294.289062 111.375 294.375 109.855469 C 294.5 107.84375 293.8125 106.273438 292.066406 104.441406 C 283.152344 95.140625 272.636719 84.132812 262.191406 72.839844 C 257.78125 68.039062 252.59375 64.160156 246.367188 61.019531 C 232.550781 53.960938 219.175781 51.4375 205.414062 53.203125 C 198.621094 54.082031 192.179688 55.988281 185.933594 59.023438 C 182.507812 60.664062 183.355469 65.816406 187.113281 66.203125 C 194.367188 66.964844 200.824219 68.816406 206.859375 71.816406 C 220.851562 78.820312 228.757812 91.894531 227.980469 106.804688 C 227.609375 113.667969 225.578125 120.335938 221.964844 126.601562 C 225.914062 130.640625 229.9375 134.769531 233.890625 138.847656 C 237.261719 142.285156 240.542969 145.691406 243.59375 148.832031 C 247.757812 145.054688 248.730469 144.316406 249.507812 143.839844 C 254.445312 141.070312 260.023438 140.804688 264.503906 143.152344 C 265.96875 143.910156 267.378906 144.984375 268.6875 146.328125 C 274.613281 152.253906 275.585938 159.914062 271.386719 166.953125 C 272.761719 168.3125 274.136719 169.652344 275.515625 170.992188 C 281 176.445312 286.734375 182.054688 292.46875 187.332031 C 293.316406 188.089844 294.023438 188.550781 294.5 188.550781 C 294.730469 188.566406 295.488281 188.425781 296.988281 187.296875 L 326.734375 158.359375 L 334.589844 150.171875 C 336.175781 148.496094 336.707031 147.015625 334.429688 144.703125 " fill-opacity="1" fill-rule="nonzero"/></svg>